<svg xmlns="http://www.w3.org/2000/svg" width="600" height="600" viewBox="0 0 600 600" role="img" aria-label="Обложка на песента Краят на ергенското">
  <defs>
    <linearGradient id="bg4" x1="0" y1="0" x2="1" y2="1">
      <stop offset="0" stop-color="#2A0E3F"/>
      <stop offset="1" stop-color="#0B0A1A"/>
    </linearGradient>
    <linearGradient id="ac4" x1="0" y1="0" x2="1" y2="1">
      <stop offset="0" stop-color="#FF4D8D"/>
      <stop offset="1" stop-color="#FFA14D"/>
    </linearGradient>
  </defs>
  <rect width="600" height="600" fill="url(#bg4)"/>
  <g stroke="#F4F2FF" stroke-width="2" opacity="0.85">
    <line x1="300" y1="60" x2="300" y2="120"/>
  </g>
  <g>
    <circle cx="300" cy="230" r="110" fill="url(#ac4)" opacity="0.95"/>
    <g fill="#0B0A1A" opacity="0.25">
      <rect x="200" y="150" width="200" height="14" rx="7"/>
      <rect x="192" y="190" width="216" height="14" rx="7"/>
      <rect x="190" y="230" width="220" height="14" rx="7"/>
      <rect x="196" y="270" width="208" height="14" rx="7"/>
      <rect x="210" y="310" width="180" height="14" rx="7"/>
    </g>
    <g fill="#0B0A1A" opacity="0.25">
      <rect x="230" y="130" width="14" height="200" rx="7"/>
      <rect x="290" y="122" width="14" height="216" rx="7"/>
      <rect x="350" y="130" width="14" height="200" rx="7"/>
    </g>
  </g>
  <g fill="#FFD36E" opacity="0.9">
    <path d="M120 420l6 16 16 6-16 6-6 16-6-16-16-6 16-6z"/>
    <path d="M480 400l5 13 13 5-13 5-5 13-5-13-13-5 13-5z"/>
    <path d="M430 500l4 10 10 4-10 4-4 10-4-10-10-4 10-4z"/>
  </g>
  <text x="60" y="490" font-family="'Unbounded','Segoe UI',sans-serif" font-size="40" font-weight="800" fill="#F4F2FF">Краят на</text>
  <text x="60" y="540" font-family="'Unbounded','Segoe UI',sans-serif" font-size="40" font-weight="800" fill="#F4F2FF">ергенското</text>
  <text x="62" y="574" font-family="'Manrope','Segoe UI',sans-serif" font-size="20" fill="#D9A9FF">за брат ми Руси</text>
</svg>
