<svg xmlns="http://www.w3.org/2000/svg" width="600" height="600" viewBox="0 0 600 600" role="img" aria-label="Обложка на песента За теб, брате Тууцо">
  <defs>
    <linearGradient id="bg3" x1="0" y1="0" x2="1" y2="1">
      <stop offset="0" stop-color="#062B33"/>
      <stop offset="1" stop-color="#0B0A1A"/>
    </linearGradient>
    <linearGradient id="ac3" x1="0" y1="0" x2="1" y2="0">
      <stop offset="0" stop-color="#2DD4BF"/>
      <stop offset="1" stop-color="#38BDF8"/>
    </linearGradient>
  </defs>
  <rect width="600" height="600" fill="url(#bg3)"/>
  <path d="M0 340 Q40 260 80 340 T160 340 T240 340 T320 340 T400 340 T480 340 T560 340 T640 340"
        fill="none" stroke="url(#ac3)" stroke-width="6" stroke-linecap="round" opacity="0.9"/>
  <path d="M0 380 Q40 330 80 380 T160 380 T240 380 T320 380 T400 380 T480 380 T560 380 T640 380"
        fill="none" stroke="url(#ac3)" stroke-width="3" stroke-linecap="round" opacity="0.45"/>
  <path d="M300 250c-16-30-60-26-66 6-5 26 24 44 66 74 42-30 71-48 66-74-6-32-50-36-66-6z"
        fill="none" stroke="#2DD4BF" stroke-width="6" stroke-linecap="round" stroke-linejoin="round" opacity="0.95"/>
  <g fill="#38BDF8" opacity="0.6">
    <circle cx="120" cy="140" r="4"/>
    <circle cx="480" cy="120" r="5"/>
    <circle cx="520" cy="480" r="4"/>
    <circle cx="90" cy="500" r="3"/>
  </g>
  <text x="60" y="110" font-family="'Unbounded','Segoe UI',sans-serif" font-size="44" font-weight="800" fill="#F4F2FF">За теб, брате</text>
  <text x="62" y="152" font-family="'Manrope','Segoe UI',sans-serif" font-size="22" fill="#8FD9E8">песен-послание за Тууцо</text>
</svg>
