<svg xmlns="http://www.w3.org/2000/svg" width="600" height="600" viewBox="0 0 600 600" role="img" aria-label="Обложка на песента АПИ">
  <defs>
    <linearGradient id="bg1" x1="0" y1="0" x2="1" y2="1">
      <stop offset="0" stop-color="#1B1145"/>
      <stop offset="1" stop-color="#0B0A1A"/>
    </linearGradient>
    <linearGradient id="ac1" x1="0" y1="0" x2="1" y2="0">
      <stop offset="0" stop-color="#7C5CFF"/>
      <stop offset="1" stop-color="#4DD6FF"/>
    </linearGradient>
    <radialGradient id="gl1" cx="0.7" cy="0.25" r="0.7">
      <stop offset="0" stop-color="#7C5CFF" stop-opacity="0.55"/>
      <stop offset="1" stop-color="#7C5CFF" stop-opacity="0"/>
    </radialGradient>
  </defs>
  <rect width="600" height="600" fill="url(#bg1)"/>
  <rect width="600" height="600" fill="url(#gl1)"/>
  <g opacity="0.9">
    <rect x="70"  y="300" width="26" height="120" rx="13" fill="url(#ac1)" opacity="0.55"/>
    <rect x="120" y="250" width="26" height="220" rx="13" fill="url(#ac1)" opacity="0.75"/>
    <rect x="170" y="190" width="26" height="330" rx="13" fill="url(#ac1)"/>
    <rect x="220" y="270" width="26" height="180" rx="13" fill="url(#ac1)" opacity="0.85"/>
    <rect x="270" y="220" width="26" height="280" rx="13" fill="url(#ac1)" opacity="0.7"/>
    <rect x="320" y="320" width="26" height="90"  rx="13" fill="url(#ac1)" opacity="0.55"/>
    <rect x="370" y="240" width="26" height="240" rx="13" fill="url(#ac1)" opacity="0.8"/>
    <rect x="420" y="290" width="26" height="140" rx="13" fill="url(#ac1)" opacity="0.6"/>
    <rect x="470" y="230" width="26" height="260" rx="13" fill="url(#ac1)" opacity="0.75"/>
  </g>
  <circle cx="470" cy="120" r="46" fill="none" stroke="#4DD6FF" stroke-width="3" opacity="0.6"/>
  <circle cx="470" cy="120" r="24" fill="#4DD6FF" opacity="0.25"/>
  <text x="60" y="120" font-family="'Unbounded','Segoe UI',sans-serif" font-size="64" font-weight="800" fill="#F4F2FF">АПИ</text>
  <text x="62" y="158" font-family="'Manrope','Segoe UI',sans-serif" font-size="22" fill="#A9A4C9">песен за приятел</text>
</svg>
