<svg xmlns="http://www.w3.org/2000/svg" width="600" height="600" viewBox="0 0 600 600" role="img" aria-label="Обложка: КАТ 2">
  <defs>
    <linearGradient id="bgk" x1="0" y1="0" x2="1" y2="1">
      <stop offset="0" stop-color="#0F1F3D"/>
      <stop offset="1" stop-color="#0B0A1A"/>
    </linearGradient>
  </defs>
  <rect width="600" height="600" fill="url(#bgk)"/>
  <!-- път -->
  <path d="M120 600 L280 200 L320 200 L480 600 Z" fill="#1C2A45"/>
  <g fill="#F4F2FF" opacity="0.85">
    <rect x="294" y="240" width="12" height="50" rx="6"/>
    <rect x="294" y="330" width="12" height="60" rx="6"/>
    <rect x="294" y="430" width="12" height="70" rx="6"/>
    <rect x="294" y="540" width="12" height="60" rx="6"/>
  </g>
  <!-- радар-камера -->
  <g transform="translate(430 260)">
    <rect x="-14" y="0" width="28" height="150" rx="8" fill="#33415E"/>
    <rect x="-46" y="-58" width="92" height="66" rx="14" fill="#4A5B80"/>
    <circle cx="0" cy="-25" r="20" fill="#0B0A1A"/>
    <circle cx="0" cy="-25" r="10" fill="#4DD6FF"/>
    <path d="M30 -70 q30 -18 60 0 M36 -92 q34 -22 68 0" fill="none" stroke="#FF4D8D" stroke-width="6" stroke-linecap="round"/>
  </g>
  <!-- светофар с ноти -->
  <g transform="translate(150 210)">
    <rect x="-26" y="-26" width="52" height="150" rx="16" fill="#33415E"/>
    <circle cy="4" r="16" fill="#FF5B5B"/>
    <circle cy="48" r="16" fill="#FFD36E"/>
    <circle cy="92" r="16" fill="#4ADE80"/>
    <path d="M40 30 q10 -14 2 -28 M44 78 q10 -14 2 -28" fill="none" stroke="#4DD6FF" stroke-width="5" stroke-linecap="round" opacity="0.8"/>
  </g>
  <text x="60" y="110" font-family="'Unbounded','Segoe UI',sans-serif" font-size="72" font-weight="800" fill="#F4F2FF">КАТ 2</text>
  <text x="62" y="150" font-family="'Manrope','Segoe UI',sans-serif" font-size="22" fill="#8FB4E8">и глобите станаха песен</text>
</svg>
