<svg xmlns="http://www.w3.org/2000/svg" width="600" height="600" viewBox="0 0 600 600" role="img" aria-label="Обложка: Напипай го, Влади">
  <defs>
    <linearGradient id="bgn" x1="0" y1="0" x2="1" y2="1">
      <stop offset="0" stop-color="#2A0E3F"/>
      <stop offset="1" stop-color="#12081F"/>
    </linearGradient>
    <linearGradient id="acn" x1="0" y1="0" x2="1" y2="0">
      <stop offset="0" stop-color="#C084FC"/>
      <stop offset="1" stop-color="#FF4D8D"/>
    </linearGradient>
  </defs>
  <rect width="600" height="600" fill="url(#bgn)"/>
  <!-- диско топка -->
  <g transform="translate(300 210)">
    <line x1="0" y1="-140" x2="0" y2="-88" stroke="#F4F2FF" stroke-width="3" opacity="0.7"/>
    <circle r="88" fill="url(#acn)"/>
    <g stroke="#12081F" stroke-width="3" opacity="0.35">
      <line x1="-88" y1="-44" x2="88" y2="-44"/>
      <line x1="-88" y1="0" x2="88" y2="0"/>
      <line x1="-88" y1="44" x2="88" y2="44"/>
      <line x1="-44" y1="-88" x2="-44" y2="88"/>
      <line x1="0" y1="-88" x2="0" y2="88"/>
      <line x1="44" y1="-88" x2="44" y2="88"/>
    </g>
  </g>
  <!-- ръка, посягаща към топката -->
  <g transform="translate(180 420) rotate(-25)" fill="#FFB08A">
    <rect x="-20" y="30" width="72" height="90" rx="26"/>
    <rect x="-18" y="-38" width="16" height="76" rx="8"/>
    <rect x="2" y="-52" width="16" height="90" rx="8"/>
    <rect x="22" y="-46" width="16" height="84" rx="8"/>
    <rect x="42" y="-30" width="16" height="68" rx="8"/>
  </g>
  <g fill="#C084FC" opacity="0.8">
    <path d="M480 120l6 16 16 6-16 6-6 16-6-16-16-6 16-6z"/>
    <path d="M110 150l4 11 11 4-11 4-4 11-4-11-11-4 11-4z"/>
    <path d="M500 430l4 11 11 4-11 4-4 11-4-11-11-4 11-4z"/>
  </g>
  <text x="60" y="500" font-family="'Unbounded','Segoe UI',sans-serif" font-size="42" font-weight="800" fill="#F4F2FF">Напипай го,</text>
  <text x="60" y="552" font-family="'Unbounded','Segoe UI',sans-serif" font-size="52" font-weight="800" fill="#C084FC">Влади</text>
</svg>
