<svg xmlns="http://www.w3.org/2000/svg" width="600" height="600" viewBox="0 0 600 600" role="img" aria-label="Обложка на песента Habibi Rusi">
  <defs>
    <linearGradient id="bg2" x1="0" y1="0" x2="0" y2="1">
      <stop offset="0" stop-color="#3B0D2E"/>
      <stop offset="0.6" stop-color="#7A1E3C"/>
      <stop offset="1" stop-color="#C2452D"/>
    </linearGradient>
    <linearGradient id="sun2" x1="0" y1="0" x2="0" y2="1">
      <stop offset="0" stop-color="#FFD36E"/>
      <stop offset="1" stop-color="#FF7A4D"/>
    </linearGradient>
  </defs>
  <rect width="600" height="600" fill="url(#bg2)"/>
  <circle cx="300" cy="330" r="150" fill="url(#sun2)" opacity="0.95"/>
  <g fill="#3B0D2E" opacity="0.9">
    <rect x="0" y="330" width="600" height="10"/>
    <rect x="0" y="360" width="600" height="14"/>
    <rect x="0" y="396" width="600" height="20"/>
    <rect x="0" y="440" width="600" height="26"/>
    <rect x="0" y="492" width="600" height="34"/>
    <rect x="0" y="548" width="600" height="52"/>
  </g>
  <path d="M436 96a54 54 0 1 0 34 96 62 62 0 1 1-34-96z" fill="#FFD36E" opacity="0.9"/>
  <g fill="#FFD36E" opacity="0.85">
    <circle cx="150" cy="140" r="5"/>
    <circle cx="210" cy="90" r="3"/>
    <circle cx="110" cy="220" r="3"/>
    <circle cx="500" cy="230" r="4"/>
  </g>
  <g fill="#FFF3DC">
    <path d="M182 470c0-30 26-30 26-52v-84l64-16v84c0 22 26 22 26 52a26 26 0 1 1-26-26v-72l-38 10v88a26 26 0 1 1-52 16z" opacity="0.95"/>
  </g>
  <text x="60" y="110" font-family="'Unbounded','Segoe UI',sans-serif" font-size="52" font-weight="800" fill="#FFF3DC">Habibi Rusi</text>
  <text x="62" y="148" font-family="'Manrope','Segoe UI',sans-serif" font-size="22" fill="#FFD36E">ориенталски вайб</text>
</svg>
