<svg xmlns="http://www.w3.org/2000/svg" width="480" height="300" viewBox="0 0 480 300" role="img" aria-label="Рожден ден — торта със свещи като еквалайзер">
  <rect width="480" height="300" rx="0" fill="#1B1145"/>
  <circle cx="80" cy="60" r="26" fill="#FF4D8D" opacity="0.25"/>
  <circle cx="420" cy="220" r="34" fill="#7C5CFF" opacity="0.2"/>
  <!-- торта -->
  <g transform="translate(140 120)">
    <rect x="0" y="70" width="200" height="70" rx="14" fill="#7C5CFF"/>
    <rect x="24" y="20" width="152" height="56" rx="12" fill="#FF4D8D"/>
    <path d="M24 44 q19 14 38 0 t38 0 t38 0 t38 0 v32 h-152 z" fill="#FFA14D"/>
    <!-- свещи-еквалайзер -->
    <rect x="52" y="-30" width="10" height="46" rx="5" fill="#4DD6FF"/>
    <rect x="86" y="-52" width="10" height="68" rx="5" fill="#FFD36E"/>
    <rect x="120" y="-38" width="10" height="54" rx="5" fill="#4ADE80"/>
    <rect x="154" y="-58" width="10" height="74" rx="5" fill="#FF9ECD"/>
    <g fill="#FFD36E">
      <ellipse cx="57" cy="-38" rx="6" ry="9"/>
      <ellipse cx="91" cy="-60" rx="6" ry="9"/>
      <ellipse cx="125" cy="-46" rx="6" ry="9"/>
      <ellipse cx="159" cy="-66" rx="6" ry="9"/>
    </g>
  </g>
  <path d="M70 200 q12 -18 4 -34 M96 214 q12 -18 4 -34" fill="none" stroke="#FFD36E" stroke-width="6" stroke-linecap="round"/>
  <path d="M400 90 q12 -18 4 -34" fill="none" stroke="#4DD6FF" stroke-width="6" stroke-linecap="round"/>
</svg>
